<svg width="8" height="8" viewBox="0 0 8 8" fill="none" xmlns="http://www.w3.org/2000/svg">
<path d="M6.16666 5C5.33899 5 4.66666 5.67167 4.66666 6.5C4.66666 7.32833 5.33899 8 6.16666 8C6.99433 8 7.66666 7.32833 7.66666 6.5C7.66666 5.67167 6.99433 5 6.16666 5ZM6.99999 6.66667H6.33333V7.33333H5.99999V6.66667H5.33333V6.33333H5.99999V5.66667H6.33333V6.33333H6.99999V6.66667ZM4.60666 8H0.333328V0H3.72966C4.78399 0 6.99999 2.40767 6.99999 3.20467V4.50033C6.79199 4.41333 6.56766 4.35967 6.33333 4.34167V3.48533C6.33333 2.11667 4.33333 2.66667 4.33333 2.66667C4.33333 2.66667 4.83933 0.666667 3.45399 0.666667H0.999995V7.33333H4.16699C4.27133 7.583 4.42199 7.808 4.60666 8V8Z" fill="#8F98A4"/>
</svg>
