<svg width="8" height="8" viewBox="0 0 8 8" fill="none" xmlns="http://www.w3.org/2000/svg">
<path d="M1.00001 2V8H7.00001V2H1.00001ZM2.66667 6.66667C2.66667 6.85067 2.51734 7 2.33334 7C2.14934 7 2.00001 6.85067 2.00001 6.66667V3.33333C2.00001 3.14933 2.14934 3 2.33334 3C2.51734 3 2.66667 3.14933 2.66667 3.33333V6.66667ZM4.33334 6.66667C4.33334 6.85067 4.18401 7 4.00001 7C3.81601 7 3.66667 6.85067 3.66667 6.66667V3.33333C3.66667 3.14933 3.81601 3 4.00001 3C4.18401 3 4.33334 3.14933 4.33334 3.33333V6.66667ZM6.00001 6.66667C6.00001 6.85067 5.85067 7 5.66667 7C5.48267 7 5.33334 6.85067 5.33334 6.66667V3.33333C5.33334 3.14933 5.48267 3 5.66667 3C5.85067 3 6.00001 3.14933 6.00001 3.33333V6.66667ZM7.33334 0.666667V1.33333H0.666672V0.666667H2.57034C2.87034 0.666667 3.11401 0.300333 3.11401 0H4.88567C4.88567 0.300333 5.12901 0.666667 5.42934 0.666667H7.33334Z" fill="#8F98A4"/>
</svg>
